<?xml version="1.0" encoding="utf-8"?>
<!-- Generator: Adobe Illustrator 25.0.0, SVG Export Plug-In . SVG Version: 6.00 Build 0)  -->
<svg version="1.1" id="Layer_1" xmlns="http://www.w3.org/2000/svg" xmlns:xlink="http://www.w3.org/1999/xlink" x="0px" y="0px"
	 viewBox="0 0 24 24" style="enable-background:new 0 0 24 24;" xml:space="preserve">
<style type="text/css">
	.st0{fill:#009DA5;}
</style>
<path class="st0" d="M12,2C6.5,2,2,6.5,2,12s4.5,10,10,10s10-4.5,10-10S17.5,2,12,2z M12,20.7c-4.8,0-8.7-3.9-8.7-8.7
	S7.2,3.3,12,3.3s8.7,3.9,8.7,8.7S16.8,20.7,12,20.7z"/>
<path class="st0" d="M16.3,9.5L16,8.8l-0.1-0.2c-0.8-1.8-2.5-2.9-4.4-2.9c-2.6,0-4.8,2.2-4.8,4.8l0,0.2l0,0.2
	c0.1,1.5,0.9,2.8,2.2,3.6l0,0l0,3.7h5.1l0-1l0.5,0l0.2,0l0.2,0l0.2,0c0.9-0.2,1.5-1,1.5-2l0-1.1l0.1,0l0.1,0l0.1,0
	c0.2-0.1,0.4-0.2,0.5-0.3c0.2-0.2,0.2-0.5,0.1-0.8L16.3,9.5z M15.6,13.2v2.1l0,0.1l0,0.1c-0.1,0.4-0.5,0.8-0.9,0.8h-0.5l-0.1,0
	l-0.1,0c0,0-0.1,0-0.1,0L13.1,16l0,1.3H10l0-3.3l-0.2-0.1l-0.3-0.2l-0.2-0.1c-1-0.7-1.6-1.9-1.6-3.1c0-2.1,1.7-3.8,3.8-3.8
	c1.7,0,3,1,3.6,2.7l1.4,3.8L15.6,13.2z"/>
</svg>
