<?xml version="1.0" encoding="utf-8"?>
<!-- Generator: Adobe Illustrator 25.0.0, SVG Export Plug-In . SVG Version: 6.00 Build 0)  -->
<svg version="1.1" id="Layer_1" xmlns="http://www.w3.org/2000/svg" xmlns:xlink="http://www.w3.org/1999/xlink" x="0px" y="0px"
	 viewBox="0 0 24 24" style="enable-background:new 0 0 24 24;" xml:space="preserve">
<style type="text/css">
	.st0{fill:#122F33;}
</style>
<g id="Shape">
	<path id="path-1_1_" class="st0" d="M9.3,3.1l5.3,1.6c0.4,0.1,0.8,0.1,1.2,0l4.9-1.4C21.2,3.1,21.8,3.4,22,4c0,0.1,0,0.2,0,0.3
		v13.9c0,0.4-0.3,0.8-0.7,1l-5.5,1.6c-0.4,0.1-0.8,0.1-1.2,0l-5.3-1.6C9,19,8.5,19,8.2,19.1l-4.9,1.4c-0.5,0.2-1.1-0.1-1.2-0.7
		c0-0.1,0-0.2,0-0.3V5.7c0-0.4,0.3-0.8,0.7-1l5.5-1.6C8.5,3,9,3,9.3,3.1z M20.7,4.7L16.2,6C16.1,6,16,6,15.9,6.1l0,13.3l4.8-1.4V4.7
		z M9.4,4.5l0,13.3l0.1,0l0,0l0.2,0.1l4.9,1.5l0-13.3l-0.1,0l0,0L14.3,6L9.4,4.5z M8.1,4.5L3.3,5.9v13.3l4.5-1.3
		c0.1,0,0.2-0.1,0.3-0.1L8.1,4.5z"/>
</g>
</svg>
