<?xml version="1.0" encoding="UTF-8" standalone="no"?>
<svg
   xmlns:dc="http://purl.org/dc/elements/1.1/"
   xmlns:cc="http://creativecommons.org/ns#"
   xmlns:rdf="http://www.w3.org/1999/02/22-rdf-syntax-ns#"
   xmlns:svg="http://www.w3.org/2000/svg"
   xmlns="http://www.w3.org/2000/svg"
   xmlns:sodipodi="http://sodipodi.sourceforge.net/DTD/sodipodi-0.dtd"
   xmlns:inkscape="http://www.inkscape.org/namespaces/inkscape"
   enable-background="new 0 0 32 32"
   height="32"
   viewBox="0 0 32 32"
   width="32"
   version="1.1"
   id="svg6"
   sodipodi:docname="close-down.svg"
   inkscape:version="0.92.2 5c3e80d, 2017-08-06">
  <metadata
     id="metadata12">
    <rdf:RDF>
      <cc:Work
         rdf:about="">
        <dc:format>image/svg+xml</dc:format>
        <dc:type
           rdf:resource="http://purl.org/dc/dcmitype/StillImage" />
        <dc:title></dc:title>
      </cc:Work>
    </rdf:RDF>
  </metadata>
  <defs
     id="defs10" />
  <sodipodi:namedview
     pagecolor="#ffffff"
     bordercolor="#666666"
     borderopacity="1"
     objecttolerance="10"
     gridtolerance="10"
     guidetolerance="10"
     inkscape:pageopacity="0"
     inkscape:pageshadow="2"
     inkscape:window-width="1680"
     inkscape:window-height="1005"
     id="namedview8"
     showgrid="false"
     inkscape:zoom="24.75"
     inkscape:cx="16.040404"
     inkscape:cy="16"
     inkscape:window-x="0"
     inkscape:window-y="1"
     inkscape:window-maximized="1"
     inkscape:current-layer="svg6" />
  <circle
     style="opacity:1;fill:#00393c;fill-opacity:0;stroke:#ffffff;stroke-width:1.5;stroke-miterlimit:4;stroke-dasharray:none;stroke-opacity:0"
     id="path822"
     cx="16"
     cy="16"
     r="14.372881" />
  <path
     d="m 19.478358,15.999856 6.066418,-6.065188 c 0.960639,-0.9606395 0.960639,-2.5178337 0,-3.4784729 -0.960639,-0.9606392 -2.517833,-0.9606392 -3.478473,0 L 15.999886,12.521383 9.934697,6.4561951 c -0.9594085,-0.9606392 -2.519064,-0.9606392 -3.4784732,0 -0.9606392,0.9606392 -0.9606392,2.5178334 0,3.4784729 l 6.0651892,6.065188 -6.0651892,6.066418 c -0.9606392,0.96064 -0.9606392,2.517835 0,3.478474 0.4797045,0.480934 1.1094705,0.720786 1.7392368,0.720786 0.6297657,0 1.2595314,-0.239852 1.7392364,-0.720786 l 6.065189,-6.066419 6.066417,6.066419 c 0.480935,0.480934 1.109471,0.720786 1.739237,0.720786 0.629765,0 1.258301,-0.239852 1.739236,-0.720786 0.960639,-0.960639 0.960639,-2.517834 0,-3.478474 z"
     id="path4"
     inkscape:connector-curvature="0"
     style="opacity:1;fill:#c4c4c4;stroke-width:1.23001182;fill-opacity:1" />
</svg>
