<svg height="64" viewBox="0 0 64 64" width="64" xmlns="http://www.w3.org/2000/svg"><path d="m 61.214174,23.848744 v 25.888414 q 0,2.151989 -1.532439,3.684364 -1.532441,1.532466 -3.684378,1.532466 H 8.0026425 q -2.1519369,0 -3.6843769,-1.532466 Q 2.7858257,51.889147 2.7858257,49.737158 V 23.848744 q 1.4346247,1.597649 3.2931156,2.836604 11.8030487,8.020843 16.2047367,11.248736 1.858492,1.369414 3.015972,2.135648 1.157482,0.766232 3.081183,1.565057 1.923702,0.798826 3.586563,0.798826 h 0.06521 q 1.662861,0 3.586563,-0.798826 1.923701,-0.798825 3.081183,-1.565057 1.15748,-0.766234 3.015971,-2.135648 5.542868,-4.010376 16.237342,-11.248736 1.858491,-1.271547 3.260511,-2.836604 z m 0,-9.585902 q 0,2.575777 -1.597649,4.923319 -1.597651,2.347633 -3.977824,4.010467 -12.259519,8.509906 -15.25919,10.59662 -0.32605,0.228236 -1.385716,0.994469 -1.059665,0.766233 -1.760676,1.239046 -0.701009,0.472722 -1.695465,1.059653 -0.994456,0.58684 -1.874793,0.880351 -0.880338,0.29342 -1.630256,0.29342 h -0.06521 q -0.749918,0 -1.630256,-0.29342 Q 29.4568,37.673256 28.462344,37.086416 27.467889,36.499485 26.766878,36.026763 26.065869,35.55395 25.006203,34.787717 23.946537,34.021484 23.620486,33.793248 20.653422,31.706534 15.077949,27.842869 9.5024761,23.979111 8.393902,23.196628 6.3723854,21.827213 4.5791047,19.430739 q -1.793279,-2.396476 -1.793279,-4.450597 0,-2.543185 1.3531119,-4.238703 Q 5.4920494,9.046012 8.0026425,9.046012 H 55.997357 q 2.119333,0 3.668075,1.532466 1.548742,1.532375 1.548742,3.684364 z" fill="#666"/></svg>
