<?xml version="1.0" encoding="UTF-8" standalone="no"?>
<svg
   xmlns:dc="http://purl.org/dc/elements/1.1/"
   xmlns:cc="http://creativecommons.org/ns#"
   xmlns:rdf="http://www.w3.org/1999/02/22-rdf-syntax-ns#"
   xmlns:svg="http://www.w3.org/2000/svg"
   xmlns="http://www.w3.org/2000/svg"
   xmlns:sodipodi="http://sodipodi.sourceforge.net/DTD/sodipodi-0.dtd"
   xmlns:inkscape="http://www.inkscape.org/namespaces/inkscape"
   height="48"
   width="48"
   version="1.1"
   id="svg12"
   sodipodi:docname="info-light.svg"
   inkscape:version="0.92.2 5c3e80d, 2017-08-06">
  <metadata
     id="metadata18">
    <rdf:RDF>
      <cc:Work
         rdf:about="">
        <dc:format>image/svg+xml</dc:format>
        <dc:type
           rdf:resource="http://purl.org/dc/dcmitype/StillImage" />
        <dc:title />
      </cc:Work>
    </rdf:RDF>
  </metadata>
  <defs
     id="defs16" />
  <sodipodi:namedview
     pagecolor="#ffffff"
     bordercolor="#666666"
     borderopacity="1"
     objecttolerance="10"
     gridtolerance="10"
     guidetolerance="10"
     inkscape:pageopacity="0"
     inkscape:pageshadow="2"
     inkscape:window-width="1680"
     inkscape:window-height="1005"
     id="namedview14"
     showgrid="false"
     inkscape:zoom="16.5"
     inkscape:cx="24.060606"
     inkscape:cy="24"
     inkscape:window-x="0"
     inkscape:window-y="1"
     inkscape:window-maximized="1"
     inkscape:current-layer="g846" />
  <g
     id="g832"
     transform="translate(6.7910153,6.2909848)">
    <g
       id="g857"
       transform="matrix(1.2686017,0,0,1.2686017,-4.6223629,-4.7566719)">
      <g
         id="g846"
         transform="matrix(1.5016897,0,0,1.5016897,-8.5536007,-9.0760589)">
        <g
           id="g826"
           transform="matrix(0.89790629,0,0,0.89790629,1.7406732,1.8469573)">
          <path
             style="fill:#eaeaea;fill-opacity:1;stroke:#000000;stroke-width:0.57265699;stroke-miterlimit:10;stroke-opacity:1"
             inkscape:connector-curvature="0"
             d="m 21.146001,24.621557 -0.406586,-0.405442 c -0.370508,-0.369935 -1.080031,-0.296635 -1.373231,0.14202 -0.183823,0.275448 -1.033646,1.155049 -1.56908,1.568507 0.06643,-0.274303 0.193557,-0.693487 0.432928,-1.373803 l 2.147463,-6.096507 c 0.504511,-1.443668 0.809166,-2.315252 0.809166,-3.05856 0,-1.176238 -0.867003,-1.936727 -2.207594,-1.936727 -3.38612,0 -6.036377,3.057988 -7.017338,4.371664 -0.0126,0.0166 -0.02405,0.03265 -0.03436,0.04696 -0.168933,0.191839 -0.235934,0.447817 -0.183249,0.710094 0.04066,0.20272 0.151754,0.399142 0.321834,0.569222 l 0.304653,0.304081 c 0.182104,0.182104 0.418611,0.282319 0.666572,0.282319 0.184968,0 0.462134,-0.05785 0.734718,-0.333286 l 0.05041,-0.05898 c 0.35333,-0.470723 1.013603,-1.182536 1.496353,-1.620619 -0.08304,0.281747 -0.200431,0.627632 -0.338441,1.025629 l -1.492915,4.351621 c -1.063425,3.074594 -1.461421,4.225062 -1.461421,4.865866 0,0.837796 0.535434,1.732286 2.038086,1.732286 4.670018,0 6.972098,-3.469155 7.224639,-3.872879 0.257124,-0.430638 0.207876,-0.860703 -0.142592,-1.21346 z"
             stroke-miterlimit="10"
             id="path6" />
          <path
             style="fill:#e6e6e6;fill-opacity:1;stroke:#000000;stroke-width:0.57336324;stroke-miterlimit:10;stroke-dasharray:none;stroke-opacity:1"
             inkscape:connector-curvature="0"
             d="m 19.249362,6.4740582 c -1.501507,0 -2.818045,1.300504 -2.818045,2.783686 0,1.6910558 1.132715,2.7836848 2.885619,2.7836848 1.720834,0 3.055124,-1.587405 3.055124,-2.9531918 5.72e-4,-1.205443 -0.817182,-2.614179 -3.122698,-2.614179 z"
             stroke-miterlimit="10"
             id="path8" />
        </g>
      </g>
    </g>
  </g>
</svg>
