<?xml version="1.0" encoding="utf-8"?>
<!-- Generator: Adobe Illustrator 25.0.0, SVG Export Plug-In . SVG Version: 6.00 Build 0)  -->
<svg version="1.1" id="Layer_1" xmlns="http://www.w3.org/2000/svg" xmlns:xlink="http://www.w3.org/1999/xlink" x="0px" y="0px"
	 viewBox="0 0 24 24" style="enable-background:new 0 0 24 24;" xml:space="preserve">
<style type="text/css">
	.st0{fill:#122F33;}
</style>
<g id="Combined-Shape">
	<path id="path-1_1_" class="st0" d="M12,2c5.5,0,10,4.5,10,10s-4.5,10-10,10S2,17.5,2,12S6.5,2,12,2z M12,3.3
		c-4.8,0-8.7,3.9-8.7,8.7s3.9,8.7,8.7,8.7s8.7-3.9,8.7-8.7S16.8,3.3,12,3.3z M12,10.8c0.5,0,0.9,0.4,1,0.9l0,0.1v4.5
		c0,0.5-0.4,1-1,1c-0.5,0-0.9-0.4-1-0.9l0-0.1v-4.5C11,11.2,11.5,10.8,12,10.8z M12,6.7c0.7,0,1.3,0.6,1.3,1.3S12.7,9.3,12,9.3
		S10.7,8.7,10.7,8S11.3,6.7,12,6.7z"/>
</g>
</svg>
