<?xml version="1.0" encoding="utf-8"?>
<!-- Generator: Adobe Illustrator 25.0.0, SVG Export Plug-In . SVG Version: 6.00 Build 0)  -->
<svg version="1.1" id="Layer_1" xmlns="http://www.w3.org/2000/svg" xmlns:xlink="http://www.w3.org/1999/xlink" x="0px" y="0px"
	 viewBox="0 0 24 24" style="enable-background:new 0 0 24 24;" xml:space="preserve">
<style type="text/css">
	.st0{fill:#009DA5;}
</style>
<g id="Shape">
	<path id="path-1_1_" class="st0" d="M12,2.3c1.6,0,2.9,0.6,4,1.7c1.1,1.1,1.6,2.4,1.6,4c0,0.8-0.2,1.7-0.6,2.6
		c-0.4,0.9-0.8,1.8-1.3,2.6c-0.1,0.2-0.2,0.4-0.3,0.5l4.5,2c0.7,0.3,1,1.1,0.7,1.7c-0.1,0.3-0.4,0.5-0.7,0.7l0,0l-7.1,3.2
		c-0.5,0.2-1.1,0.2-1.6,0l0,0l-7.1-3.2c-0.7-0.3-1-1.1-0.7-1.7c0.1-0.3,0.4-0.5,0.7-0.7l0,0l4.5-2c-0.1-0.2-0.2-0.4-0.4-0.6
		c-0.5-0.8-0.9-1.6-1.2-2.6C6.5,9.7,6.3,8.8,6.3,8c0-1.6,0.6-2.9,1.6-4C9.1,2.9,10.4,2.3,12,2.3z M14.7,14.9
		c-0.1,0.2-0.3,0.4-0.4,0.6c0,0-0.1,0.1-0.1,0.1l0,0L14,15.9l-0.3,0.4l-0.3,0.4L13,17.2c-0.5,0.6-1.3,0.6-1.8,0.2
		c-0.1-0.1-0.1-0.1-0.2-0.2l0,0l-0.4-0.5l-0.5-0.6l-0.4-0.5c-0.2-0.2-0.3-0.4-0.5-0.6L4.6,17l7.1,3.2c0.2,0.1,0.4,0.1,0.5,0l0,0
		l7.1-3.2L14.7,14.9z M12,3.7c-1.2,0-2.2,0.4-3.1,1.3C8.1,5.8,7.7,6.8,7.7,8c0,0.6,0.2,1.3,0.5,2.2c0.3,0.9,0.7,1.7,1.1,2.4
		c0.4,0.7,0.9,1.4,1.5,2.2l0,0l0.4,0.5l0.3,0.4l0.5,0.7l0.2-0.2l0.5-0.6l0.3-0.3l0.2-0.3l0.1-0.1c0.5-0.7,1-1.4,1.4-2.2
		c0.5-0.8,0.9-1.6,1.2-2.4c0.3-0.8,0.5-1.5,0.5-2.2c0-1.2-0.4-2.2-1.3-3.1C14.2,4.1,13.2,3.7,12,3.7z M12,7.8c0.3,0,0.6,0.2,0.6,0.6
		l0,0.1v2c0,0.4-0.3,0.6-0.6,0.6c-0.3,0-0.6-0.2-0.6-0.6l0-0.1v-2C11.4,8.1,11.6,7.8,12,7.8z M12,5.4c0.4,0,0.8,0.4,0.8,0.8
		S12.4,7.1,12,7.1s-0.8-0.4-0.8-0.8S11.5,5.4,12,5.4z"/>
</g>
</svg>
