<?xml version="1.0" encoding="utf-8"?>
<!-- Generator: Adobe Illustrator 25.0.0, SVG Export Plug-In . SVG Version: 6.00 Build 0)  -->
<svg version="1.1" id="Layer_1" xmlns="http://www.w3.org/2000/svg" xmlns:xlink="http://www.w3.org/1999/xlink" x="0px" y="0px"
	 viewBox="0 0 24 24" style="enable-background:new 0 0 24 24;" xml:space="preserve">
<style type="text/css">
	.st0{fill:#122F33;}
</style>
<g id="Shape">
	<path id="path-1_1_" class="st0" d="M19.8,2C21,2,22,3,22,4.2v15.9c0,0.4-0.2,0.8-0.6,0.9l-2.2,1l-1.8-0.8L15.7,22l-1.8-0.8
		L12.1,22l-1.8-0.8L8.6,22l-2.3-1c-0.4-0.2-0.6-0.5-0.6-0.9V10H4c-0.6,0-1-0.4-1-1V4c0-1.1,0.9-2,2-2H19.8z M19.8,3.3H6.9
		C6.9,3.5,7,3.7,7,3.9L7,4v15.9l1.6,0.7l1.8-0.7l1.8,0.7l1.8-0.7l1.8,0.8l1.8-0.8l1.8,0.7l1.5-0.7V4.2c0-0.5-0.4-0.9-0.8-0.9
		L19.8,3.3z M18.5,15.9c0.4,0,0.6,0.3,0.6,0.6c0,0.3-0.2,0.6-0.6,0.6l-0.1,0h-3c-0.4,0-0.6-0.3-0.6-0.6c0-0.3,0.2-0.6,0.6-0.6l0.1,0
		H18.5z M18.5,12.9c0.4,0,0.6,0.3,0.6,0.6c0,0.3-0.2,0.6-0.6,0.6l-0.1,0h-9c-0.4,0-0.6-0.3-0.6-0.6c0-0.3,0.2-0.6,0.6-0.6l0.1,0
		H18.5z M18.5,9.9c0.4,0,0.6,0.3,0.6,0.6c0,0.3-0.2,0.6-0.6,0.6l-0.1,0h-9c-0.4,0-0.6-0.3-0.6-0.6c0-0.3,0.2-0.6,0.6-0.6l0.1,0H18.5
		z M5,3.3c-0.4,0-0.6,0.3-0.7,0.6l0,0.1l0,4.7h1.4V4C5.7,3.6,5.4,3.4,5,3.3L5,3.3z M18.5,6.8c0.4,0,0.6,0.3,0.6,0.7
		c0,0.3-0.2,0.6-0.6,0.6l-0.1,0h-9c-0.4,0-0.6-0.3-0.6-0.6c0-0.3,0.2-0.6,0.6-0.6l0.1,0H18.5z"/>
</g>
</svg>
