<?xml version="1.0" encoding="UTF-8"?>
<svg xmlns="http://www.w3.org/2000/svg" xmlns:xlink="http://www.w3.org/1999/xlink" width="30pt" height="30pt" viewBox="0 0 30 30" version="1.1">
<g id="surface1">
<path style=" stroke:none;fill-rule:nonzero;fill:rgb(0%,0%,0%);fill-opacity:1;" d="M 14.835938 -0.167969 C 8.324219 -0.167969 3.042969 5.113281 3.042969 11.628906 C 3.042969 14.535156 4.101562 17.195312 5.84375 19.25 L 14.835938 29.84375 L 23.832031 19.25 C 25.574219 17.195312 26.632812 14.535156 26.632812 11.628906 C 26.632812 5.113281 21.351562 -0.167969 14.835938 -0.167969 Z M 14.835938 16.074219 C 12.160156 16.074219 9.988281 13.902344 9.988281 11.222656 C 9.988281 8.542969 12.160156 6.371094 14.835938 6.371094 C 17.515625 6.371094 19.6875 8.542969 19.6875 11.222656 C 19.6875 13.902344 17.515625 16.074219 14.835938 16.074219 Z M 14.835938 16.074219 "/>
</g>
</svg>
