<?xml version="1.0" encoding="UTF-8" standalone="no"?>
<svg
   xmlns:dc="http://purl.org/dc/elements/1.1/"
   xmlns:cc="http://creativecommons.org/ns#"
   xmlns:rdf="http://www.w3.org/1999/02/22-rdf-syntax-ns#"
   xmlns:svg="http://www.w3.org/2000/svg"
   xmlns="http://www.w3.org/2000/svg"
   id="svg4"
   version="1.1"
   viewBox="0 0 140 140">
  <metadata
     id="metadata10">
    <rdf:RDF>
      <cc:Work
         rdf:about="">
        <dc:format>image/svg+xml</dc:format>
        <dc:type
           rdf:resource="http://purl.org/dc/dcmitype/StillImage" />
        <dc:title></dc:title>
      </cc:Work>
    </rdf:RDF>
  </metadata>
  <defs
     id="defs8" />
  <path
     id="path2"
     fill-rule="evenodd"
     fill="#1E3967"
     d="M129.924 60.759c-.094-.184-.164-.392-.304-.507-.539-.438-1.147-.783-1.897-.737-1.803.092-3.535-.277-5.291-.53-.82-.115-1.64-.392-2.435-.622-.726-.185-1.428-.277-2.154-.093-.445.116-.796-.023-1.148-.3-1.802-1.589-3.84-2.81-5.947-3.962-.679-.369-1.334-.76-2.06-.99-1.428-.485-2.716-1.222-3.933-2.098-1.241-.875-2.459-1.797-3.723-2.672-.422-.3-.586-.622-.586-1.152a3.56 3.56 0 00-.749-2.327 5.955 5.955 0 01-.796-1.199c-.468-.921-1.124-1.59-2.084-1.981-.187-.092-.374-.207-.585-.323.094-.207.14-.368.234-.484.75-.944 1.241-2.004 1.78-3.064 1.264-2.465 1.802-5.046 1.475-7.81-.352-2.88-1.475-5.415-3.56-7.466-3.066-2.995-6.742-4.032-10.957-2.95-1.334.346-2.528.991-3.652 1.798-.398.3-.726.668-1.1 1.014-.211.184-.375.391-.586.576-.89.737-1.85 1.405-2.482 2.396-.585.899-1.147 1.82-1.592 2.788a11.556 11.556 0 00-1.077 5.322c.023.484-.14.807-.609.991-.515.207-.936.553-1.194 1.06-.14.253-.257.53-.374.806-.14.323-.352.553-.61.76-.28.231-.585.508-.702.83-.187.438-.444.691-.842.899-.82.415-1.499.99-1.874 1.843-.28.668-.772.968-1.451 1.175-1.1.323-2.178.691-3.255 1.06-.632.23-.772.161-.96-.484l-.07-.276c-.304-1.13-.609-2.281-.913-3.41-.07-.277-.023-.507.164-.715.304-.322.421-.69.445-1.106.07-.806.304-1.543.632-2.28.164-.346.304-.669.398-1.037.117-.484.398-.738.89-.876 2.716-.853 5.408-1.751 8.1-2.604.54-.16.844-.46 1.054-.967 2.131-4.954 4.285-9.885 6.44-14.839.07-.138.093-.3.186-.53-.327.093-.585.139-.82.208-4.143 1.29-8.31 2.58-12.455 3.87-.304.093-.632.185-.983.277-.843-2.235-1.382-4.562-2.553-6.636-.772.093-1.498.185-2.27.277.187-.346.42-.622.491-.922.258-.944.258-1.89-.187-2.81a8.977 8.977 0 00-1.335-2.028c-.421-.484-.936-.715-1.545-.807-.21-.023-.398-.092-.585-.115h-.445c-.117.046-.211.092-.328.092-1.1.115-1.943.714-2.716 1.429-.351.322-.562.737-.68 1.198-.303 1.267-.186 2.488.376 3.663.398.876 1.006 1.544 1.99 1.798.023 0 .046.046.093.138-.28.161-.562.345-.866.46-.328.139-.468.346-.515.715-.234 2.189-.492 4.4-.75 6.59-.07.576-.07.576-.631.737-3.49.944-6.954 1.89-10.443 2.834-.187.046-.375.115-.585.184-.422 4.816-.913 9.608-1.241 14.47.304-.07.515-.138.726-.184 2.645-.83 5.315-1.66 7.96-2.489.422-.138.726-.092 1.054.23.538.553 1.17.968 1.896 1.268.422.184.586.438.586.898-.07 2.281-.117 4.562-.188 6.843-.046 1.222.07 2.397.633 3.503.187.368.327.783.491 1.175a3.975 3.975 0 001.194 1.567c1.311 1.036 2.81 1.428 4.472 1.152.539-.093 1.077-.208 1.592-.3 2.272-.392 4.52-.806 6.79-1.198 1.03-.184 2.06-.415 3.09-.6.586-.091.89.093 1.195.6.117.207.304.415.492.576.398.3.655.668.702 1.152.07.76.187 1.544.187 2.304 0 1.13-.093 2.235-.14 3.364-.047 1.106-.375 2.074-1.381 2.673-.024 0-.024.023-.047.046-.586.53-.913 1.152-.703 1.981a1.59 1.59 0 01-.187 1.175c-.14.277-.304.553-.421.853-.398.945-.773 1.912-.726 2.972 0 .3-.14.645-.351.899-.914 1.198-1.85 2.373-2.997 3.364-1.85 1.59-3.7 3.156-5.573 4.746-.421.346-.82.714-1.24 1.037-.165.138-.375.254-.586.277a2.758 2.758 0 00-1.499.714c-.28.276-.632.438-1.006.553a3.947 3.947 0 00-1.569.83c-.398.345-.75.714-1.147 1.06-.68.621-1.007 1.405-1.007 2.326-.023 1.014-.398 1.89-1.147 2.604-.422.415-.843.83-1.218 1.29-2.037 2.489-3.793 5.161-5.362 7.972-.187.346-.398.576-.796.692-.585.16-.96.53-1.147 1.105a7.846 7.846 0 01-.445 1.014c-.14.3-.35.576-.421.899-.094.3-.047.645-.07 1.014-.258.161-.562.345-.867.553-.749.484-1.522.944-2.224 1.497-1.569 1.268-2.575 2.95-3.395 4.747a10.527 10.527 0 00-.983 4.93 5.38 5.38 0 004.238 5.023c.749.162 1.475.093 2.13-.276.445-.254.89-.553 1.265-.899.796-.714 1.357-1.613 1.779-2.58.468-1.06.936-2.12 1.381-3.203a10.533 10.533 0 012.833-3.94c.352-.323.703-.645 1.218-.76.164-.046.328-.185.468-.3.492-.345.96-.691 1.452-1.037.374-.253.655-.599.772-1.036.117-.461.375-.83.726-1.153.492-.483 1.007-.944 1.475-1.428 1.335-1.313 2.412-2.811 3.138-4.54.515-1.22 1.077-2.441 1.592-3.663.257-.599.702-.944 1.381-1.083a2.83 2.83 0 001.124-.46c.492-.346.937-.738 1.358-1.152.773-.784 1.475-1.613 1.686-2.742.047-.254.234-.392.492-.484a9.696 9.696 0 001.334-.576c1.71-.968 3.395-1.936 5.08-2.926a69.897 69.897 0 003.536-2.235c.656-.461 1.218-1.083 1.827-1.613.187-.161.421-.346.655-.392 1.124-.23 2.271-.438 3.418-.645.258-.046.516-.023.75.161.96.853 1.966 1.66 2.74 2.696.14.207.28.415.444.645-.164.07-.281.138-.398.185-.632.253-1.218.576-1.71 1.036-.374.369-.748.438-1.217.208-.679-.346-1.405-.369-2.13-.254-1.382.185-2.389.876-2.927 2.19-.14.345-.281.69-.422 1.013-.257.622-.35 1.267-.257 1.958.117.83.375 1.613.843 2.305.702 1.06 1.1 2.211.913 3.502-.07.484-.094.944-.187 1.428-.398 2.143.866 4.655 3.23 5.369.844.253 1.686.276 2.553.23 1.451-.069 2.411-.783 3.02-2.05.562-1.176.68-2.397.492-3.664-.094-.668-.234-1.336-.351-2.028-.024-.16 0-.345 0-.576.187.024.35.024.468.07.75.23 1.498.483 2.224.737.75.276 1.499.576 2.248.875 1.147.438 2.318.6 3.535.415 1.054-.161 2.037-.46 2.833-1.198.82-.783 1.475-1.659 1.897-2.719.21-.484.421-.99.702-1.451.539-.807.75-1.682.632-2.627a13.378 13.378 0 00-.304-1.636c-.07-.253-.187-.53-.375-.737-.585-.738-1.217-1.429-2.037-1.89-.702-.391-1.123-.967-1.404-1.658-.633-1.59-1.499-3.042-2.459-4.47-1.1-1.636-2.2-3.295-3.325-4.931-.327-.507-.444-.99-.187-1.567.14-.3.187-.691.14-1.014-.07-.53.047-.99.282-1.428.843-1.66 1.451-3.387 1.943-5.184.14-.53.375-.991.679-1.452 1.077-1.636 1.896-3.387 2.014-5.392.023-.3.046-.599.07-.99.234.16.421.253.562.368 1.006.738 2.013 1.475 3.043 2.19.492.345.726.713.703 1.336-.024.921.328 1.705.96 2.396 1.381 1.474 2.926 2.81 4.66 3.87a35.263 35.263 0 005.876 2.835 3.755 3.755 0 001.592.207c.281-.023.585.023.866.092.281.07.562.185.843.277.586.184.937.53 1.1 1.129.235.875.797 1.52 1.593 1.981a5.347 5.347 0 002.06.714c.281.024.562.07.843.047.726-.093 1.24-.692 1.428-1.521.164-.76.094-1.429-.632-1.913-.164-.115-.398-.16-.351-.46l.492-.07c.725-.138 1.404-.437 1.264-1.474-.024-.277 0-.553.023-.853.047-.023.094-.023.117-.046.188.208.398.415.586.645.585.669 1.405.876 2.247.577.328-.116.539-.323.633-.646.234-.714.21-1.428-.164-2.073-.164-.277-.352-.553-.539-.853-.093-.161-.164-.322-.28-.553.257-.023.397-.069.561-.069.468-.023.937-.023 1.405-.023.796-.023 1.358-.392 1.615-1.129.024-.07.07-.115.118-.184v-.668c.093-.093.046-.23-.024-.37zM97.59 43.916c.398.323.726 1.728.702 2.926-.046 1.406-.679 2.996-1.498 3.548.047-.207.07-.322.117-.414.515-1.06.679-2.19.702-3.318 0-.645-.046-1.29-.07-1.936-.047-.276-.14-.553.047-.806zm-1.85-1.221c.117-.023.328.069.398.184.211.3.422.622.539.968.164.53.28 1.06.375 1.613.234 1.59-.07 3.11-.61 4.608-.093.276-.233.53-.631.645.046-.184.07-.392.14-.576.609-1.843.468-3.71.117-5.576-.07-.345-.234-.668-.351-.99-.047-.139-.117-.277-.164-.415-.023-.185-.023-.392.187-.461zm-.538 1.244c1.077 1.959.585 3.894.023 5.945-.117-.185-.21-.277-.234-.37a4.974 4.974 0 01-.234-.782c-.023-.208-.047-.438.047-.623.468-1.013.492-2.05.14-3.11-.047-.115-.07-.254-.093-.369-.094-.345.023-.53.35-.691zM89.864 20.23c.187 0 .35.138.304.3-.023.138-.164.276-.234.345-.305 0-.468-.161-.445-.345.023-.185.164-.3.375-.3zM88.81 31.727c-.351 2.512-1.686 4.516-3.348 6.36a9.671 9.671 0 01-.984.967c-.515.438-1.334.23-1.521-.391-.047-.185-.047-.438.046-.622.328-.692.703-1.383 1.077-2.051.89-1.613 1.593-3.295 1.897-5.115.023-.115.047-.207.07-.346.913-.276 1.803-.576 2.857-.576.046.645-.024 1.221-.094 1.774zm.023-2.765c.024.116.024.208.024.392-.913.161-1.826.3-2.81.461-.023-.23-.023-.369-.047-.553.913-.276 1.827-.346 2.716-.415.07.07.117.092.117.115zm-.515-8.732c.211 0 .398.184.398.369 0 .23-.187.437-.398.437a.404.404 0 01-.398-.368c0-.254.164-.438.398-.438zm-1.358.323c.234 0 .352.115.375.322.023.208-.14.392-.468.392-.07-.07-.211-.184-.258-.323-.07-.184.117-.391.351-.391zm-5.432 2.788c.539-.484 1.077-.968 1.686-1.36.585-.415 1.241-.737 1.897-1.06.164-.092.398-.092.585-.069.21.023.398.138.445.369.047.23-.07.391-.258.507-.093.046-.21.092-.328.16 2.201 1.614 2.506 2.766 2.95 5.116l-2.739.853a10.078 10.078 0 00-1.756-3.987c-.093-.115-.187-.253-.28-.345-.141-.115-.305-.208-.469-.323-.351.3-.702.576-1.054.853-.327.276-.585.3-.796.092-.187-.253-.187-.53.117-.806zm-1.31 1.428c.397-.161.631.046.655.484.023.322 0 .622-.024.945-.07 1.198-.117 2.396-.187 3.57 0 .093-.023.185-.047.323-.515-.253-.585-.391-.515-.829.07-.484.14-.945.21-1.429.024-.138.024-.299 0-.437-.046-.507-.28-.692-.795-.576-.305.069-.609.161-.913.23-.164.046-.352.07-.656.115.562-1.106 1.218-1.935 2.271-2.396zm-2.249 11.06c.469-.046.726-.323.867-.738.21-.599.351-1.198.351-1.843 0-.576-.234-1.083-.656-1.475-.398-.391-.725-.368-1.053.093-.094.115-.187.23-.281.368-.047-.023-.117-.046-.164-.069.023-.138.023-.276.094-.392.187-.46.421-.898.82-1.244.444-.391.748-.414 1.17-.023.21.185.398.438.515.714.632 1.452.585 2.904-.047 4.332-.21.484-.585.853-1.054 1.106-.468.254-.655.184-.796-.345-.023-.093-.023-.208-.046-.346a.796.796 0 01.28-.138zm-.538-1.383c-.281.185-.562.092-.585-.207a3.42 3.42 0 01.117-1.083c.023-.115.28-.254.421-.254.094 0 .234.208.281.346.07.138.047.323.07.484.024.276-.023.53-.304.714zm1.428-6.728c.375-.092.468-.023.468.369v.115c-.046.99-.046.99-1.03 1.244a2.233 2.233 0 00-1.077.576c-.164.162-.328.3-.468.438.023-1.659.656-2.35 2.107-2.742zm-16.553 5.507c-.258.46-.515.922-.82 1.452a8.745 8.745 0 01-1.802-1.314c.398-.115.679-.23.983-.276.562-.07.843-.392.96-.899.094-.438.234-.852.374-1.267.07-.184.164-.369.258-.553.047 0 .07.023.117.023 0 .07.023.161.023.23.024.553.024 1.106.07 1.636.048.369 0 .669-.163.968zm-5.643-19.423c.586-.3 1.194-.6 1.78-.899.023-.53-.094-.691-.562-.806-.234-.046-.469-.093-.726-.139-.21-.046-.398-.069-.609-.115-1.007-.276-1.686-.875-1.85-1.912-.046-.3-.117-.622-.14-.922-.023-.369 0-.737.328-1.06.328.53.117 1.198.515 1.728 0-.53-.047-1.014 0-1.474.164-1.36 1.17-2.281 2.482-2.19.327.024.702.139.983.323 2.107 1.29 1.99 3.618 1.1 4.977-.14.208-.28.392-.398.6-.093.16-.234.345-.093.552.82-.069 1.569-.161 2.341-.23.445-.046.726.161.937.553.655 1.267 1.124 2.603 1.545 3.963.117.392.258.783.351 1.152.117.438.094.553-.374.714-1.03.369-2.084.737-3.138 1.06-.772.253-1.545.46-2.318.691-.491.138-.585.092-.796-.345-.772-1.682-1.451-3.387-1.896-5.185-.094-.69-.047-.737.538-1.036zm-.796 3.502c.047 0 .094 0 .14-.023l.211.415c.305.852.586 1.705.89 2.557.164.507.14.576-.375.714-.468.116-.913.323-1.521.3.234-1.36.444-2.673.655-3.963zm-5.034 15.184c-.07.944-.234 1.89-.491 2.834-.07.23-.141.368-.375.414-2.459.715-4.917 1.452-7.352 2.166h-.187c.328-4.009.702-7.995 1.053-12.027 11.403-3.364 22.829-6.705 34.231-10.069.023.023.07.07.094.092-.07.162-.117.346-.188.507-1.756 3.986-3.512 7.972-5.244 11.981-.188.415-.422.692-.89.83-2.412.76-4.823 1.567-7.258 2.35-.094.023-.188.07-.258.092-.304.092-.468-.023-.468-.391.187-.07.398-.162.609-.208.445-.092.632-.345.749-.76.796-2.604 1.615-5.207 2.412-7.811l.702-2.281c.047-.138.07-.277.117-.507-.796.23-1.498.415-2.2.645-.68.208-1.382.323-2.014.645.023.046.023.093.046.162.305-.07.633-.139 1.054-.254-.07.277-.094.484-.164.668-.75 2.074-1.545 4.148-2.271 6.244-.468 1.36-1.077 2.673-1.733 3.963-.07.139-.164.277-.28.484-.164-.276-.024-.46.023-.622.75-2.304 1.522-4.585 2.294-6.866.258-.783.515-1.567.773-2.373.047-.161.094-.3.14-.53-.21.069-.35.092-.468.138-1.732.6-3.465 1.175-5.198 1.774-.327.116-.515.277-.585.645-.351 1.682-.726 3.341-1.1 5.023-.024.116-.07.208-.117.392-.211-.23-.281-.438-.235-.691.047-.277.094-.53.14-.807.095-.553.212-1.129.282-1.682.117-1.013.21-2.05.304-3.087.469-.161.89-.3 1.311-.438.352-.115.352-.115.469-.576-.445.115-.89.23-1.311.369-.445.138-.914.184-1.265.553-.093.092-.28.115-.421.138-.586.161-1.148.346-1.733.46-.374.07-.515.277-.609.623-.398 1.613-.82 3.226-1.217 4.815-.047.185-.117.346-.187.53l-.281.83c-.117.3-.211.645-.398.898a1.125 1.125 0 00-.305.715zm3.465 5c-.655-.346-1.358-.646-1.99-1.014a5.596 5.596 0 01-1.1-.853.901.901 0 01-.234-.576c.07-.852.21-1.682.327-2.511.024-.161.047-.392.469-.346-.024.392-.024.784-.047 1.152-.023.23-.047.438-.047.668 0 .162.047.323.14.461.047.092.235.162.328.162.094-.024.188-.162.211-.277a.927.927 0 00.024-.438l-.07-2.765c-.024-.714.233-1.336.631-1.912.188-.277.469-.253.586.07.117.322.21.667.21 1.013 0 .576-.046 1.175-.07 1.774 0 .184-.093.484.188.484.304.023.21-.277.234-.46.117-1.038-.07-2.052-.305-3.065a1.905 1.905 0 01.234-1.429c.258-.46.492-.898.726-1.36.164-.345.422-.506.68-.46.327.069.444.3.49.599.118.553.071 1.083-.21 1.567-.398.691-.304 1.36-.023 2.073.187.438.28.922.398 1.383.047.184.093.392.14.599.164.668.539 1.152 1.241 1.36.398.115.75.322 1.124.483 1.03.484 1.78 1.267 2.295 2.258.21.438.257.876-.024 1.36-.187-.116-.374-.185-.538-.3-1.288-.783-2.67-.83-4.05-.415-.422.116-.797.415-1.148.669-.234.184-.492.23-.82.046zm18.614 12.465c-.257-.3-.117-.461-.047-.645.211-.53.469-1.06.61-1.59.21-.83.14-1.682-.329-2.489v1.221c0 .876-.28 1.66-.796 2.374-.562.76-1.264 1.22-2.2 1.405-2.927.553-5.877 1.152-8.804 1.728-.609.115-1.194.254-1.803.392-.562.138-1.1.046-1.662-.115-1.64-.461-2.857-1.774-2.88-3.595 0-.622-.094-1.244-.117-1.866-.07-1.452.093-2.88.28-4.309.071-.576.094-1.175.188-1.75.047-.346.117-.692.234-1.014.234-.692.726-1.13 1.452-1.337.936-.253 1.873-.276 2.81 0 .397.115.608.346.678.76.211 1.037.469 2.051.703 3.065.14.599.304 1.175.421 1.774.164.899-.234 1.659-.82 2.327-.187.23-.444.392-.678.576-.328.254-.656.484-.96.76-.96.807-1.194 1.913-.68 3.042.048.115.118.23.188.323.14.207.351.3.585.16.211-.114.118-.322.094-.506-.047-.184-.094-.369-.14-.53-.188-.691.023-1.267.562-1.728.398-.346.842-.668 1.264-1.014.702-.599 1.428-1.198 1.826-2.074.07-.16.281-.3.445-.391l5.97-2.42c.516-.207 1.054-.23 1.593-.115 1.943.415 3.067 1.682 3.512 3.48.304 1.198.046 2.396-.773 3.386-.187.277-.445.484-.726.715zm.984.714c-.094.046-.258-.07-.398-.115.046-.115.093-.254.187-.369.047-.069.117-.092.187-.138.866-.6 1.288-1.452 1.382-2.466.093-1.22-.094-2.396-.797-3.433-.655-.99-1.545-1.728-2.716-2.096-.187-.07-.374-.185-.561-.254.023-.069.023-.138.046-.207.188 0 .375-.046.562-.023.492.069.984.161 1.499.276.187.046.398.116.585.208 1.64.967 2.693 2.327 2.786 4.262 0 .138 0 .254.024.392.21 1.498-.586 2.534-1.64 3.433-.35.23-.772.369-1.146.53zm.117.968c-.047-.254.14-.323.327-.392.773-.323 1.405-.83 2.037-1.382.82-.692 1.288-1.567 1.265-2.65 0-.6.023-1.175-.07-1.751-.164-1.014-.633-1.867-1.335-2.627-.539-.599-1.194-1.06-1.897-1.451-.632-.346-1.334-.438-2.06-.438h-.937c0-.046-.023-.092-.023-.139.21-.23.539-.299.82-.345 1.873-.277 4.237.415 5.431 2.442.797 1.36 1.218 2.857 1.171 4.424-.047 2.465-1.99 3.986-3.957 4.378-.398.115-.445.092-.772-.07zm5.478-5.369c-.14-.76-.304-1.52-.562-2.258-.819-2.35-2.552-3.755-4.987-4.308-.117-.024-.234-.07-.374-.093 0-.046 0-.069-.024-.115.164-.023.328-.092.492-.092 1.1-.07 2.177.07 3.184.507.703.3 1.311.737 1.733 1.36.655.99 1.147 2.073 1.405 3.225.023.115.07.207.047.323-.047 1.22-.024 2.442-.188 3.64-.304 1.935-1.498 3.203-3.371 3.825-.515.161-1.054.253-1.57.368-.116.024-.257 0-.397-.023a.432.432 0 01-.187-.16c0-.07.046-.185.117-.231.093-.07.234-.115.35-.162.586-.253 1.172-.506 1.733-.783.375-.184.75-.415 1.1-.668 1.406-1.13 1.827-2.627 1.5-4.355zM61.58 82.417c.468.668.913 1.383 1.358 2.05-.047.047-.094.07-.14.116-.703-.645-1.382-1.267-2.06-1.912-.071-.07-.118-.3-.095-.323.141-.092.328-.207.469-.207a.756.756 0 01.468.276zm-4.495 4.079a1.306 1.306 0 01-.281-.415c-.07-.162.023-.277.234-.323.07.046.164.115.234.185L59.66 88.5c.047.046.094.07.094.138.023.116.07.3.023.323-.093.069-.28.115-.398.069-.14-.07-.257-.207-.374-.323a80.863 80.863 0 00-1.92-2.211zm1.522 3.11c-.164-.115-.305-.161-.399-.253a47.845 47.845 0 01-1.592-1.475 3.115 3.115 0 01-.468-.622c-.14-.23-.094-.415.14-.553.399.276 2.155 2.442 2.319 2.903zm-.703-4.078c-.094-.115-.187-.23-.257-.369a.27.27 0 01.257-.369c.07.047.164.093.234.162l2.482 2.719c.047.046.117.115.117.184.024.069 0 .161 0 .253-.094 0-.21.023-.304-.023-.07-.023-.14-.115-.211-.184a227.856 227.856 0 01-2.318-2.373zm.82-.945c-.07-.069-.14-.138-.164-.207-.024-.115-.047-.254 0-.346.07-.115.21-.184.327-.276.14.069.235.115.305.184.21.184.398.392.585.599.586.668 1.17 1.336 1.733 2.028.117.115.21.253.28.414.024.093-.023.277-.093.323-.07.046-.234.023-.328 0-.07-.023-.14-.115-.21-.184-.82-.853-1.616-1.705-2.435-2.535zm2.81.922c-.563-.622-1.125-1.221-1.687-1.844-.07-.069-.14-.138-.187-.207-.117-.207.024-.46.328-.46.14.068.351.138.468.276.773.783 1.499 1.567 2.248 2.373.07.07.117.161.14.23.094.208-.046.346-.187.484-.164.139-.304.07-.445-.069-.21-.276-.445-.53-.679-.783zm-19.06 22.971c.375.07.82.484.82.784 0 .253-.21.46-.468.438-.328 0-.796-.369-.867-.669-.093-.368.141-.622.516-.553zm1.64 5.093c-.399 1.013-.937 1.912-1.733 2.672-.562.553-1.241.784-2.037.691-2.13-.253-3.535-1.635-3.77-3.732-.14-1.313.094-2.558.469-3.802.046-.138.14-.253.234-.392.047.023.093.023.14.046-.047.346-.117.715-.14 1.06-.047.507-.07 1.037-.07 1.544 0 .576.234 1.083.608 1.52.492.577 1.03.577 1.452-.068.538-.807 1.03-1.613 1.545-2.42.117-.16.234-.345.375-.483.14-.139.304-.208.515-.116.187.092.351.23.328.461-.024.208-.07.392-.14.576-.258.645-.54 1.244-.75 1.89a3.324 3.324 0 00-.164 1.175c.024.714.75 1.036 1.335.622.445-.3.843-.692 1.24-1.037.188-.161.352-.323.61-.53-.024.207-.024.276-.047.323zm-.211-4.931c-.234 0-.866-.484-.937-.715-.07-.299.211-.599.469-.46.28.161.561.368.749.622.187.23-.024.553-.281.553zm.82-.968c-.305-.046-.727-.507-.727-.83 0-.253.188-.414.422-.391.304.046.726.507.75.83 0 .276-.188.437-.446.391zm1.076-.922c-.234 0-.772-.437-.843-.668-.07-.23.094-.438.352-.46.35-.024.843.391.843.737a.343.343 0 01-.352.391zm1.03-1.013c-.117.069-.35.115-.444.046a2.038 2.038 0 01-.562-.53c-.164-.23 0-.553.28-.576.235-.023.867.46.89.691 0 .115-.07.323-.164.369zm4.707-1.59c-.188.138-.352.3-.515.415-.516.391-.75.322-1.054-.208-.047-.092-.094-.161-.117-.253-.656-1.13-1.499-2.12-2.646-2.788-.468-.277-.983-.438-1.475-.645-.187-.07-.398-.116-.585-.185-.211-.092-.351-.23-.328-.46.094-.553.328-1.06.843-1.36.164-.092.398-.092.609-.161.304.069.585.092.866.184 2.271.784 3.91 2.189 4.683 4.47.093.438.07.737-.281.99zm6.579-11.152c-.562.922-.913 1.935-1.288 2.926-.585 1.498-1.405 2.88-2.529 4.078-.585.623-1.17 1.245-1.802 1.913-.117-.184-.235-.3-.305-.438-.96-1.843-2.482-3.018-4.472-3.617-.187-.046-.351-.116-.585-.208.094-.184.14-.345.234-.507.983-1.728 1.967-3.479 2.974-5.207.702-1.198 1.638-2.189 2.692-3.087.07-.07.164-.092.258-.162.164.139.304.277.444.415.82.853 1.663 1.705 2.459 2.558.492.507 1.007.944 1.733 1.036.07 0 .14.07.21.093-.023.092 0 .16-.023.207zm6.579-6.175a65.668 65.668 0 01-2.67 2.972c-.819.83-1.849 1.383-2.902 1.844-.703.3-1.452.184-2.014-.392-.96-.945-1.873-1.912-2.81-2.857-.468-.461-.538-.968-.257-1.567.234-.46.445-.922.655-1.405a5.459 5.459 0 011.546-2.074c.749-.668 1.522-1.313 2.247-1.982.422-.391.914-.645 1.452-.83.468-.16.539-.137.866.231.094.116.188.23.305.369-.07.07-.14.138-.211.161-.538.139-.96.461-1.381.83-.726.622-1.429 1.244-2.154 1.843-.75.622-1.312 1.405-1.85 2.212-.328.484-.351 1.014-.07 1.52.28.484.608.968 1.006 1.383.445.484.984.899 1.499 1.336.398.346.866.37 1.288.093.538-.346 1.077-.669 1.545-1.106.937-.876 1.826-1.798 2.74-2.696.116-.115.187-.277.304-.392.679-.714.608-1.52.374-2.373-.046-.184-.187-.346-.327-.507-.188-.253-.422-.507-.633-.76l.117-.115c.118.069.235.138.328.23.89.922 1.241 2.05 1.311 3.272 0 .253-.14.576-.304.76zm11.496-7.534c-1.1 1.037-2.341 1.958-3.512 2.926a1.297 1.297 0 01-.187.138c-1.92 1.221-3.746 2.58-5.807 3.548-.14.07-.28.116-.468.185-.024-.185-.047-.3-.024-.415.07-1.382-.468-2.558-1.38-3.571-.656-.715-1.453-1.268-2.295-1.751-.258-.139-.492-.323-.796-.507.304-.323.561-.622.842-.899.75-.737 1.546-1.451 2.295-2.189 1.756-1.728 3.489-3.433 5.221-5.16a99.102 99.102 0 011.592-1.545c.703-.645 1.546-.875 2.482-.76.187.023.351.07.632.138-.21.254-.328.438-.491.6-.937.967-1.897 1.935-2.81 2.925-.187.208-.351.461-.539.669.024.023.047.069.07.092.094-.023.211-.023.282-.07.257-.184.538-.345.749-.575 1.007-.968 2.013-1.982 3.02-2.95.515-.483.609-.506 1.194-.092 1.1.807 1.71 1.936 1.99 3.226.586 2.42-.327 4.4-2.06 6.037zM81.6 77.9c-.89.323-1.827.461-2.857.438.047-.207.047-.369.094-.53.374-1.221.491-2.488.609-3.756a3.86 3.86 0 00-.118-1.152c-.35-1.382-1.006-2.626-2.036-3.64-1.148-1.152-2.506-1.613-4.145-1.198-.421.115-.491.046-.608-.323-.164-.599-.14-1.175.21-1.705.305-.46.609-.921.937-1.36.257-.322.632-.437 1.03-.506 1.124-.184 2.271-.184 3.418-.115 1.873.138 3.7.484 5.48 1.083 2.27.737 4.12 2.05 5.572 3.94.21.253.374.553.538.852.21.392.21.76 0 1.152-.351.691-.75 1.383-1.311 1.913a111.945 111.945 0 01-3.512 3.11c-.96.783-2.107 1.36-3.301 1.797zm3.933 21.52a2.342 2.342 0 01-1.78 1.13c-.28.022-.561.046-.842.022-1.194-.184-2.225-.737-3.09-1.566a1.695 1.695 0 01-.54-1.245c.024-1.22.118-2.419.188-3.64 0-.046.047-.092.07-.138.047 0 .07-.023.117-.023.047.161.094.345.14.507.188 1.06.352 2.096.586 3.156.187.807.843 1.198 1.616 1.152.327-.023.585-.161.725-.438.258-.46.492-.921.516-1.451.023-.392.117-.46.398-.46.327 0 .421.091.468.483.023.23.023.438.047.668.047.876.445 1.267 1.334 1.29.047 0 .117.023.234.047-.07.16-.093.368-.187.506zm-1.264-4.861c-.047.046-.14.023-.164.023-.422 0-.656-.138-.656-.369.024-.207.258-.345.632-.3.07 0 .164 0 .211.047.094.092.258.207.234.322.024.092-.14.185-.257.277zm.21.806c0 .208-.14.277-.327.323-.047 0-.117 0-.211.023-.07 0-.187 0-.281-.046-.094-.07-.187-.185-.187-.3 0-.069.093-.207.187-.23.164-.046.328-.07.492-.046.164-.023.327.069.327.276zm-.117-2.166c-.21.093-.468.139-.772.208-.094-.092-.281-.185-.328-.323-.023-.092.14-.3.258-.345.21-.093.468-.139.702-.139.117 0 .304.162.351.277.024.069-.117.276-.21.322zm4.308-1.313a.336.336 0 01-.14.046c-1.24-.184-2.482-.3-3.63-.875-.748-.37-1.193-.922-1.357-1.705-.047-.185-.07-.37-.164-.53-.047-.093-.21-.208-.304-.185-.094 0-.234.139-.258.23-.07.692-.117 1.36.445 1.913l.656.645c-.726-.023-1.78-1.037-2.084-1.935-.398-1.198-.047-2.88.726-3.433 0 .23-.024.438 0 .645.023.115.093.23.187.3.047.022.21-.047.28-.139.165-.207.352-.438.47-.691.608-1.244 1.615-1.89 2.95-2.143.28-.046.514 0 .678.254l1.124 1.728c.14.23.117.391-.07.576-.375.345-.468.83-.515 1.313-.117 1.198.164 2.304.772 3.34l.281.485c-.023.069-.047.115-.047.161zm2.06.968a.61.61 0 01-.374-.208c-.07-.069-.14-.253-.117-.322.024-.092.188-.161.305-.184.187-.047.398-.024.608-.047.024 0 .047-.046.117-.092-.304-.391-.07-.668.211-.967.234-.254.304-.576.21-.922-.046-.184-.046-.369-.07-.645.75.691 1.007 1.958.586 2.696-.258.437-.96.783-1.475.69zm7.236-.162c-.937.438-1.92.715-2.974.461-.187-.046-.187-.023-.374-.345.679-.092 1.334-.162 1.99-.323.632-.161 1.217-.415 1.896-.668-.023.484-.234.737-.538.875zm1.264-2.258a.55.55 0 01-.21.185c-1.078.691-2.202 1.336-3.536 1.405h-.281c-.187 0-.375-.046-.375-.253 0-.092.164-.208.258-.3a.342.342 0 01.164-.046c1.147-.184 2.154-.714 3.137-1.244l.843-.415c.21.3.117.484 0 .668zm1.124-4.677c.351.6.445 1.244.398 1.913 0 .092-.14.184-.21.276-.095-.069-.212-.115-.235-.184-.21-.807-.421-1.613-.656-2.535.398.115.586.3.703.53zm-1.405 1.221c.023-.115.07-.207.117-.3.024-.045.07-.068.164-.137.094.115.21.184.281.3.398.76.28 1.658-.585 2.142-1.335.737-2.693 1.428-4.191 1.797-.61.138-.984.438-1.148 1.06-.164.599-.585 1.014-1.053 1.405-.07.047-.164.07-.234.093-.024-.023-.047-.07-.07-.093.397-.46.842-.921.89-1.566.046-.576-.048-1.152-.071-1.797h.632c1.007.046 1.99-.047 2.927-.415 1.147-.461 1.966-1.267 2.341-2.489zm-3.442-6.59c.75 1.268 1.358 2.627 2.037 3.94.609 1.222.515 2.397-.351 3.48-.866 1.106-2.084 1.451-3.442 1.313-1.31-.138-2.341-.76-3.09-1.866-1.382-2.028-2.763-4.078-4.355-5.968-.68-.806-1.405-1.59-2.107-2.373-.164-.184-.305-.369-.492-.599.164-.115.28-.23.421-.3 1.827-.668 3.325-1.843 4.73-3.11.117-.092.21-.207.328-.3.023-.023.07-.023.187-.092.094.115.21.254.328.392.562.645 1.124 1.29 1.685 1.912.164.185.375.323.586.507.187-.276.023-.414-.07-.553a58.045 58.045 0 00-1.452-1.89c-.164-.206-.328-.39-.492-.598-.187-.254-.21-.507 0-.76.234-.3.469-.6.773-.968.187.253.28.368.374.53 1.476 2.419 2.974 4.838 4.402 7.304zm-4.753-12.764c-.655-.737-1.287-1.452-1.943-2.189 1.17-.46 2.271-.898 3.395-1.336.047.438-.866 2.788-1.452 3.525zm4.52-8.848c-.656 1.867-1.85 3.364-3.49 4.493-1.357.945-2.88 1.314-4.495 1.314h-.913l.468.368c.937.645 1.803 1.337 2.505 2.212.328.392.562.876.797 1.314.046.092.046.23.093.483a4.605 4.605 0 01-.421-.345c-.281-.3-.562-.576-.843-.899-1.616-1.89-3.746-2.88-6.088-3.548-2.06-.576-4.19-.807-6.321-.853-.843-.023-1.663.162-2.506.254-.234.023-.468.092-.702.115-.164-.438-.164-.53.164-.645.515-.207 1.054-.438 1.592-.507 1.499-.23 3.02-.207 4.542-.07.867.07 1.71.254 2.552.37.047 0 .094 0 .258-.023-2.365-2.19-2.763-4.977-2.716-7.927-.351.438-.632 1.89-.515 3.41.093 1.153.398 2.258.609 3.457-1.57-.254-3.114-.07-4.753 0 .046-.23.07-.392.14-.553.632-1.89.773-3.825.656-5.784-.024-.3-.07-.576-.14-.875-.118-.576-.118-.6.49-.714.376-.07.75-.093 1.101-.185.586-.138 1.148-.368 1.592-.783.867-.807 1.546-1.728 1.874-2.88.444-1.544.515-3.088.444-4.655-.023-.276-.046-.552-.117-.829-.35-1.29-.866-2.511-1.685-3.594-1.077-1.383-2.53-2.028-4.238-2.166-.609-.046-1.241-.07-1.85-.115-.164 0-.304-.046-.468-.07 0-.046-.024-.092-.024-.138.117-.092.234-.207.375-.253.398-.138.562-.415.609-.83.047-.737.445-1.106 1.194-1.129.328 0 .562.116.772.369 1.499 1.728 3.442 1.452 4.613.161.164-.184.304-.368.445-.53.538.3.609.438.445.945-.14.392-.328.783-.492 1.175-.117.254-.281.392-.609.369-.421-.023-.585.345-.374.668.21.322.515.553.913.599.421.046.726.23 1.053.484l2.389 1.935a8.532 8.532 0 002.575 1.429c.913.3 1.803.599 2.716.852.375.116.773.116 1.17.162a2.906 2.906 0 002.038-.484c.632-.415 1.217-.899 1.826-1.36.094-.069.164-.138.328-.276 0 .184.023.276 0 .345a3.608 3.608 0 01-.422.715c-.913 1.083-2.084 1.75-3.488 1.958-.656.092-1.335-.046-2.014-.115-.421-.046-.866-.092-1.264-.23-.515-.162-1.03-.346-1.475-.623-1.312-.852-2.6-1.75-3.887-2.626-.187-.115-.375-.23-.585-.277.117.369.398.645.679.876.983.76 1.966 1.544 2.95 2.304.164.115.304.253.515.415-1.662.783-3.161 1.659-3.863 3.525 3.418-3.203 7.024-3.433 10.91-1.014.117-.415-.187-.622-.35-.83-.188-.23-.446-.437-.656-.668.796-.414 1.545-.806 2.294-1.198.304.738.07 1.429-.632 1.913.21.691.421 1.405.632 2.096.047.116.14.23.21.323.75.99 1.218 2.12 1.382 3.341.258 1.958.164 3.917-.515 5.852zm1.006-6.013c-.094.046-.21.046-.375.069.164-.484.562-.691.82-1.014.28-.323.585-.622.82-.968.233-.345.444-.737.608-1.129.164-.391.28-.806.375-1.22.093-.416.14-.83.187-1.245.047-.415.07-.83.117-1.244.047 0 .07 0 .117-.023.047.092.117.161.14.253.258 1.52.094 2.972-.538 4.378-.468 1.06-1.264 1.728-2.271 2.143zm19.433 7.188a2.58 2.58 0 01-.445.553c-.608.623-1.264 1.222-1.85 1.867-.468.507-.89 1.083-1.334 1.636-.445.553-.679 1.175-.632 1.912 0 .138-.024.277-.047.484-.187-.07-.351-.092-.492-.161-2.669-1.337-5.127-2.95-7.211-5.115-.82-.853-1.311-1.844-1.358-3.019-.023-.737-.375-1.313-.96-1.728-.773-.553-1.569-1.083-2.341-1.613-.469-.322-.937-.622-1.382-.944-.28-.208-.304-.323-.047-.576.281-.3.61-.553.914-.83.82-.76 1.287-1.659 1.358-2.765 0-.184.07-.392.093-.576.75.254 5.69 3.756 5.947 4.194-.047.046-.07.138-.14.16-.68.416-1.124 1.06-1.592 1.683-.492.645-.539 1.36-.469 2.097.024.138.14.253.235.414.35-.253.421-.553.468-.852.117-.714.468-1.314.983-1.82.14-.139.258-.277.375-.415.374-.507.89-.645 1.498-.53.351.069.703.184.984.369 2.411 1.474 4.8 2.949 7.188 4.423.538.346.585.622.257 1.152zm6.837 5.876c-.047.092-.187.184-.281.23-.351.115-.702.23-1.077.346-.632-1.152-.304-1.544.445-2.166.187-.161.351-.138.538.023.305.254.539 1.198.375 1.567zm3.465-.714c-.445.622-1.147.645-1.639.092-.398-.461-.843-.876-1.264-1.337-.351-.368-.305-.553.187-.668.375-.092.773-.138 1.264-.23.14.092.375.161.539.322.328.323.609.692.913 1.06.21.323.21.461 0 .76zm.89-2.834c-.609-.023-1.241-.093-1.85-.116-1.92-.046-3.535.669-4.8 2.12-.327.392-.515.807-.491 1.313.023.507 0 1.037 0 1.544a1.84 1.84 0 00.538 1.406c.07.069.117.138.187.207.539.645.562.806.188 1.336-.515.715-1.1.968-1.756.76a1.028 1.028 0 01-.68-.667c-.163-.53-.35-1.037-.49-1.567-.024-.115.046-.277.14-.369.117-.138.304-.207.468-.3.843-.506 1.264-1.382 1.124-2.327-.117-.829-.539-1.428-1.358-1.75-.351-.139-.68-.3-1.1-.484.187-.254.327-.438.468-.623.561-.783.913-1.59.702-2.58-.094-.415.023-.576.492-.622a6.685 6.685 0 012.341.115c.983.207 1.967.438 2.974.599.585.092 1.194.115 1.779.161.492.023.983.07 1.381.392.188.161.375.369.445.6.14.46-.187.852-.702.852zm-5.573 11.405c1.64 11.75-.983 29.976-15.335 44.56-14.26 14.493-34.231 19.17-51.23 15.622 2.6.415 5.222.646 7.844.715 2.67.092 5.315-.092 7.96-.415a55.472 55.472 0 007.75-1.52 53.352 53.352 0 007.493-2.627 53.438 53.438 0 007.024-3.687 52.538 52.538 0 006.392-4.677 52.202 52.202 0 005.596-5.507 54.345 54.345 0 004.753-6.29 55.02 55.02 0 003.77-6.912 55.664 55.664 0 002.692-7.373 53.064 53.064 0 001.545-7.627c.328-2.604.468-5.207.398-7.834-.047-2.603-.328-5.207-.772-7.903 1.24 1.083 2.622 1.475 4.12 1.475zM40.508 33.34c-8.359 4.01-15.29 9.7-20.698 17.166-5.385 7.465-8.592 15.76-9.716 24.838.35-4.793 1.381-9.447 3.043-13.963 2.74-7.465 6.907-14.078 12.527-19.77 4.355-4.423 9.365-8.017 15.055-10.851-.07.875-.14 1.705-.211 2.58zM10 75.874l.023.023v.53H10v-.553zM59.941 51.45c.094 0 .164.093.304.162-.093.092-.187.207-.21.207-.094-.046-.188-.138-.281-.207.07-.07.14-.162.187-.162zm10.162 22.81c.093.093.163.185.257.277-.07.07-.164.208-.234.185-.094-.023-.187-.139-.304-.23.117-.093.187-.162.28-.231zm16.74-27.026c-2.27.369-3.933 1.636-5.08 3.571-.867 1.498-1.218 3.11-1.218 4.078 0 2.696.421 4.424 1.311 5.853 1.288 2.074 3.208 3.133 5.666 3.018 2.529-.138 4.566-1.244 5.924-3.387 1.592-2.488 2.037-5.207 1.311-8.064-.866-3.433-4.331-5.645-7.914-5.07zm7.47 8.433c-.118 1.567-.61 3.018-1.523 4.332-1.03 1.428-2.341 2.465-4.12 2.834-1.686.345-3.232-.023-4.566-1.106-1.428-1.152-2.178-2.65-2.482-4.401-.07-.461-.094-.922-.14-1.221.046-2.42.749-4.447 2.34-6.106 1.125-1.198 2.53-1.936 4.215-2.028 1.873-.092 3.419.668 4.59 2.074 1.357 1.636 1.849 3.548 1.685 5.622zm-6.65-6.959c-1.592.162-2.833.991-3.817 2.19a7.758 7.758 0 00-1.077 1.704 7.797 7.797 0 00-.655 2.535c-.024.23-.047.46-.047.691.047.484.07.968.164 1.452.28 1.497.96 2.81 2.154 3.801 2.107 1.705 4.987 1.498 7.047-.483 1.382-1.337 2.108-2.973 2.271-4.862.024-.184.024-.369.024-.53v-.576c-.047-1.405-.468-2.696-1.382-3.87-1.147-1.499-2.716-2.259-4.682-2.052zm2.856 8.019a3.013 3.013 0 01-.726.898c-.023.023-.046.023-.07.046a2.027 2.027 0 01-.375.23c-.163.07-.327.139-.491.162-.14.023-.281.046-.422.046a2.43 2.43 0 01-.983-.207 2.016 2.016 0 01-.726-.6 1.761 1.761 0 01-.234-.414c-.07.415-.14.806-.21 1.175-.024.092-.024.184-.048.277-.046.276-.093.553-.14.852-.023.184-.07.369-.094.553a.765.765 0 01-.725-.76c-.024-.438.046-.876.117-1.314.093-.645.21-1.267.327-1.912.024-.092.024-.184.047-.276.188-1.13.375-2.235.562-3.364.024-.093.047-.208.07-.3.492.115.703.438.703 1.06.047-.023.07-.046.093-.046 1.007-1.106 2.623-.691 3.302.345.21.323.35.669.421 1.06.14.807 0 1.751-.398 2.489zm-.562-2.373c.047.184.094.345.14.46-.046.738-.163 1.221-.491 1.636-.375.484-.843.738-1.452.668-.655-.092-1.077-.506-1.24-1.129a2.28 2.28 0 01-.094-.553 1.72 1.72 0 01.023-.599c0-.069.024-.115.024-.184.093-.415.327-.806.679-1.152l.023-.023a1.409 1.409 0 012.2.276c.048.23.118.438.188.6zM75.23 37.834c-.07.045-.187.184-.304.207-.211.023-.469-.3-.445-.461.047-.185.164-.277.374-.254.235-.023.399.162.375.507zM92.392 77.9c.047-.046.094-.115.14-.138.048 0 .118.046.211.092-.093.07-.163.138-.21.138-.047.023-.094-.046-.14-.092zM48 26.497c-.421 2.972-.866 5.922-1.311 8.894-.14.875-.14.898-1.03 1.152-.82.23-1.64.46-2.576.714.445-3.571.937-7.096 1.405-10.668 1.194-.345 2.341-.69 3.536-1.037.093.346.023.646-.024.945zm17.373 3.525c1.147-3.34 2.271-6.705 3.395-10.045.14-.438.351-.669.82-.784.749-.184 1.475-.415 2.2-.622.117-.046.258-.046.445-.092-.023.184-.023.322-.07.438-1.124 3.41-2.271 6.82-3.395 10.23-.117.345-.304.553-.679.668-.82.23-1.639.507-2.458.76-.118.046-.235.046-.469.116.094-.323.164-.484.211-.669zm-13.44-3.456c-.632 2.72-1.264 5.46-1.896 8.18-.094.438-.28.691-.772.783-.773.161-1.499.415-2.342.645.047-.322.094-.576.14-.852.633-3.18 1.288-6.36 1.897-9.54.07-.414.258-.644.68-.736.912-.23 1.779-.507 2.785-.807-.164.853-.327 1.59-.491 2.327zm17.256 2.466c1.241-3.457 2.506-6.936 3.747-10.392.117-.345.327-.53.702-.645.843-.23 1.686-.484 2.646-.76-.094.276-.14.437-.211.622-1.358 3.41-2.74 6.797-4.097 10.207-.164.415-.398.668-.843.783-.656.162-1.311.392-2.06.622.07-.207.07-.322.116-.437zm-8.17-7.304c.023-.116.163-.3.28-.323.094-.023.234.138.468.277-.21.16-.304.276-.445.322-.187.046-.327-.092-.304-.276zm-.703.276a.414.414 0 01.234-.253c.047-.023.164.115.28.207-.14.092-.21.207-.327.23-.047.024-.21-.138-.187-.184zm1.615-.53c-.023-.069.094-.161.188-.276.093.115.21.184.21.253 0 .07-.117.138-.187.23-.07-.092-.187-.138-.21-.207zm-2.247.76c0-.022.046-.092.07-.115.047 0 .093.046.14.07-.023.046-.047.092-.093.138-.024-.023-.094-.046-.117-.092zm-1.288-4.838c-.445-1.06-.21-2.097.398-3.064.421-.646 1.053-.876 1.826-.83 1.803.07 3.16 2.05 2.552 3.733-.374 1.037-1.498 1.82-2.575 1.82-.984.023-1.733-.576-2.201-1.659zm-1.873-6.728c.093 0 .187.092.374.184-.164.116-.257.254-.35.23-.095-.022-.188-.137-.235-.23 0-.046.14-.184.21-.184zm.726.438c.046 0 .093.046.187.115-.07.07-.117.161-.14.161-.07-.023-.118-.092-.188-.138.047-.046.07-.138.14-.138zm22.57 14.63c0-.16.094-.299.258-.253.14.023.257.162.445.3-.188.115-.281.207-.375.23-.164.023-.304-.069-.328-.276z" />
</svg>
