<?xml version="1.0" encoding="UTF-8" standalone="no"?>
<svg
   xmlns:dc="http://purl.org/dc/elements/1.1/"
   xmlns:cc="http://creativecommons.org/ns#"
   xmlns:rdf="http://www.w3.org/1999/02/22-rdf-syntax-ns#"
   xmlns:svg="http://www.w3.org/2000/svg"
   xmlns="http://www.w3.org/2000/svg"
   xmlns:sodipodi="http://sodipodi.sourceforge.net/DTD/sodipodi-0.dtd"
   xmlns:inkscape="http://www.inkscape.org/namespaces/inkscape"
   width="24"
   height="24"
   version="1.1"
   id="svg10"
   sodipodi:docname="reload.svg"
   inkscape:version="0.92.2 5c3e80d, 2017-08-06">
  <metadata
     id="metadata16">
    <rdf:RDF>
      <cc:Work
         rdf:about="">
        <dc:format>image/svg+xml</dc:format>
        <dc:type
           rdf:resource="http://purl.org/dc/dcmitype/StillImage" />
        <dc:title></dc:title>
      </cc:Work>
    </rdf:RDF>
  </metadata>
  <defs
     id="defs14" />
  <sodipodi:namedview
     pagecolor="#ffffff"
     bordercolor="#666666"
     borderopacity="1"
     objecttolerance="10"
     gridtolerance="10"
     guidetolerance="10"
     inkscape:pageopacity="0"
     inkscape:pageshadow="2"
     inkscape:window-width="1412"
     inkscape:window-height="758"
     id="namedview12"
     showgrid="false"
     inkscape:zoom="22.708333"
     inkscape:cx="12"
     inkscape:cy="12"
     inkscape:window-x="0"
     inkscape:window-y="0"
     inkscape:window-maximized="0"
     inkscape:current-layer="svg10" />
  <path
     d="M 9.4,23.7 14.37,17.49 9.4,11.28 v 4.14 l -2.7,0.0221 c -3.22,-0.0404 -3.05,-4.08 0.219,-4.16 v -1.66 c -2.82,0 -6.62,1.09 -6.62,6.21 0,1.74 1.43,3.73 4.97,3.73 h 4.14 z"
     id="path2"
     style="display:inline;fill:#00c0c9;fill-opacity:1;fill-rule:evenodd;stroke:#000000;stroke-width:0.60000002;stroke-linejoin:round;stroke-opacity:0.78431374"
     inkscape:connector-curvature="0" />
  <path
     d="M 9.71,22.8 9.70505,19.61 c -0.0076,-0.281 -0.179,-0.376 -0.345,-0.37 l -3.91,-0.0051 c -3.54,-0.0046 -4.85,-1.81 -4.85,-3.47 0.0113,-2.41 0.833,-3.73 2.02,-4.66 -0.731,0.931 -1.38,2.08 -1.38,3.88 0,2.54 1.15,3.73 4.97,3.73 h 3.6 c 0.389,0 0.535,0.239 0.535,0.527 v 2.78 z"
     id="path4"
     inkscape:connector-curvature="0"
     style="display:inline;fill:#ffffff;fill-rule:evenodd;stroke-width:0.61199999;fill-opacity:0.44705883" />
  <path
     d="m 14.3,0.623 -4.97,6.21 4.97,6.21 V 8.903 L 17,8.8809 c 3.22,0.0404 3.05,4.08 -0.219,4.16 v 1.66 c 2.82,0 6.62,-1.09 6.62,-6.21 0,-1.74 -1.43,-3.73 -4.97,-3.73 h -4.14 z"
     id="path6"
     inkscape:connector-curvature="0"
     style="display:inline;fill:#00c0c9;fill-rule:evenodd;stroke:#000000;stroke-width:0.60000002;stroke-linejoin:round;fill-opacity:1;stroke-opacity:0.78431374" />
  <path
     d="m 14,1.51 0.005,3.19 c 0.0076,0.281 0.179,0.376 0.345,0.37 l 3.91,0.0051 c 3.54,0.0046 4.85,1.81 4.85,3.47 -0.0113,2.41 -0.833,3.73 -2.02,4.66 0.731,-0.931 1.38,-2.08 1.38,-3.88 0,-2.54 -1.15,-3.73 -4.97,-3.73 h -3.6 c -0.389,0 -0.535,-0.239 -0.535,-0.527 v -2.78 z"
     id="path8"
     inkscape:connector-curvature="0"
     style="display:inline;fill:#ffffff;fill-rule:evenodd;stroke-width:0.61199999;fill-opacity:0.44705883" />
</svg>
