<?xml version="1.0" encoding="UTF-8" standalone="no"?>
<!-- Generator: Adobe Illustrator 25.0.0, SVG Export Plug-In . SVG Version: 6.00 Build 0)  -->

<svg
   xmlns:dc="http://purl.org/dc/elements/1.1/"
   xmlns:cc="http://creativecommons.org/ns#"
   xmlns:rdf="http://www.w3.org/1999/02/22-rdf-syntax-ns#"
   xmlns:svg="http://www.w3.org/2000/svg"
   xmlns="http://www.w3.org/2000/svg"
   xmlns:sodipodi="http://sodipodi.sourceforge.net/DTD/sodipodi-0.dtd"
   xmlns:inkscape="http://www.inkscape.org/namespaces/inkscape"
   version="1.1"
   id="Layer_1"
   x="0px"
   y="0px"
   viewBox="0 0 24 24"
   style="enable-background:new 0 0 24 24;"
   xml:space="preserve"
   inkscape:version="0.48.4 r9939"
   width="100%"
   height="100%"
   sodipodi:docname="satellite.svg"><metadata
   id="metadata11"><rdf:RDF><cc:Work
       rdf:about=""><dc:format>image/svg+xml</dc:format><dc:type
         rdf:resource="http://purl.org/dc/dcmitype/StillImage" /><dc:title></dc:title></cc:Work></rdf:RDF></metadata><defs
   id="defs9">
	
</defs><sodipodi:namedview
   pagecolor="#ffffff"
   bordercolor="#666666"
   borderopacity="1"
   objecttolerance="10"
   gridtolerance="10"
   guidetolerance="10"
   inkscape:pageopacity="0"
   inkscape:pageshadow="2"
   inkscape:window-width="686"
   inkscape:window-height="480"
   id="namedview7"
   showgrid="false"
   inkscape:zoom="9.8333333"
   inkscape:cx="12"
   inkscape:cy="12"
   inkscape:window-x="0"
   inkscape:window-y="0"
   inkscape:window-maximized="0"
   inkscape:current-layer="Layer_1" />
<style
   type="text/css"
   id="style3">
	.st0{fill-rule:evenodd;clip-rule:evenodd;fill:#009DA5;}
</style>
<path
   style="fill:#000000;fill-rule:evenodd;fill-opacity:1"
   inkscape:connector-curvature="0"
   d="m 18.108475,2.3169492 4,4 c 0.4,0.4 0.4,1.2 0,1.6 l -4,3.9999998 0.8,0.8 c 0.4,0.4 0.4,1.2 0,1.6 l -4,4 c -0.4,0.4 -1.2,0.4 -1.6,0 l -0.8,-0.7 -4.0000004,4 c -0.4,0.4 -1.2,0.4 -1.6,0 l -4,-4 c -0.4,-0.4 -0.4,-1.2 0,-1.6 l 4,-4 -0.8,-0.8 c -0.5,-0.5 -0.5,-1.2 0,-1.5999998 l 4.0000004,-4 c 0.4,-0.4 1.2,-0.4 1.6,0 l 0.8,0.7 4,-4 c 0.5,-0.4 1.2,-0.4 1.6,0 z M 5.3084746,15.216949 l -1.6,1.6 4,4 1.6,-1.6 z m 2.4,-2.4 -1.6,1.6 4.0000004,4 1.6,-1.6 z m 3.2000004,-6.4999998 -4.0000004,3.9999998 7.2000004,7.2 4,-4 z m 4,-0.8 -1.6,1.6 4,3.9999998 1.6,-1.5999998 z m 2.4,-2.4 -1.6,1.6 4,4 1.6,-1.6 z"
   class="st0"
   id="path-1_1_"
   sodipodi:nodetypes="ssscsssccsssscscscccsccccccccccccccccccccccccc" />
</svg>