<?xml version="1.0" encoding="utf-8"?>
<!-- Generator: Adobe Illustrator 25.0.0, SVG Export Plug-In . SVG Version: 6.00 Build 0)  -->
<svg version="1.1" id="Layer_1" xmlns="http://www.w3.org/2000/svg" xmlns:xlink="http://www.w3.org/1999/xlink" x="0px" y="0px"
	 viewBox="0 0 24 24" style="enable-background:new 0 0 24 24;" xml:space="preserve">
<style type="text/css">
	.st0{fill:#122F33;}
</style>
<g id="Shape">
	<path id="path-1_1_" class="st0" d="M9.7,3c3.7,0,6.7,3,6.7,6.7c0,1.6-0.6,3.1-1.5,4.3l0.5,0.5c0.3,0,0.6,0,0.8,0.2l0.1,0.1
		l4.5,4.5c0.4,0.4,0.4,1.1,0,1.6c-0.4,0.4-1,0.4-1.5,0.1l-0.1-0.1l-4.5-4.5c-0.3-0.3-0.4-0.6-0.3-0.9L14,14.9
		c-1.2,1-2.6,1.5-4.3,1.5C6,16.4,3,13.4,3,9.7S6,3,9.7,3z M9.7,4.3c-3,0-5.4,2.4-5.4,5.4s2.4,5.4,5.4,5.4s5.4-2.4,5.4-5.4
		S12.7,4.3,9.7,4.3z"/>
</g>
</svg>
