<?xml version="1.0" encoding="UTF-8" standalone="no"?>
<svg
   xmlns:dc="http://purl.org/dc/elements/1.1/"
   xmlns:cc="http://creativecommons.org/ns#"
   xmlns:rdf="http://www.w3.org/1999/02/22-rdf-syntax-ns#"
   xmlns:svg="http://www.w3.org/2000/svg"
   xmlns="http://www.w3.org/2000/svg"
   xmlns:sodipodi="http://sodipodi.sourceforge.net/DTD/sodipodi-0.dtd"
   xmlns:inkscape="http://www.inkscape.org/namespaces/inkscape"
   height="24"
   width="24"
   version="1.1"
   id="svg14"
   sodipodi:docname="search.svg"
   inkscape:version="0.92.2 5c3e80d, 2017-08-06">
  <metadata
     id="metadata20">
    <rdf:RDF>
      <cc:Work
         rdf:about="">
        <dc:format>image/svg+xml</dc:format>
        <dc:type
           rdf:resource="http://purl.org/dc/dcmitype/StillImage" />
      </cc:Work>
    </rdf:RDF>
  </metadata>
  <defs
     id="defs18" />
  <sodipodi:namedview
     pagecolor="#ffffff"
     bordercolor="#666666"
     borderopacity="1"
     objecttolerance="10"
     gridtolerance="10"
     guidetolerance="10"
     inkscape:pageopacity="0"
     inkscape:pageshadow="2"
     inkscape:window-width="1680"
     inkscape:window-height="1005"
     id="namedview16"
     showgrid="false"
     inkscape:zoom="33"
     inkscape:cx="12"
     inkscape:cy="12"
     inkscape:window-x="0"
     inkscape:window-y="1"
     inkscape:window-maximized="1"
     inkscape:current-layer="g12" />
  <g
     transform="translate(0,-8)"
     id="g12">
    <path
       d="m 17.96122,7 c 0,3.354712 -2.668929,6.074244 -5.96122,6.074244 C 8.707709,13.074244 6.0387797,10.354712 6.0387797,7 6.0387797,3.6452879 8.707709,0.92575645 12,0.92575645 c 3.292291,0 5.96122,2.71953145 5.96122,6.07424355 z"
       style="opacity:0.8;fill:#e6e6e6;stroke:#505050;stroke-width:0.75218332;stroke-linecap:round;stroke-linejoin:round;stroke-dashoffset:7"
       transform="matrix(1.4003553,0,0,1.3742014,-1.6738287,7.2495077)"
       id="path2"
       inkscape:connector-curvature="0" />
    <path
       d="m 7.8260866,22.087644 c 0,2.086807 2.0869568,2.086807 2.0869568,2.086807 0,0 -7.3043482,7.303828 -7.3043482,7.303828 L 0.52173861,29.39147 Z"
       id="path4"
       inkscape:connector-curvature="0"
       style="fill:#009da5;fill-rule:evenodd;stroke:#505050;stroke-width:1.04344106;stroke-linejoin:round;fill-opacity:1" />
    <path
       d="m 6.2608692,23.652749 2.0869565,-2.086807 2.0869553,2.086807 -2.0869553,2.086809 z"
       id="path6"
       inkscape:connector-curvature="0"
       style="fill-rule:evenodd;stroke:#505050;stroke-width:1.04344106;stroke-linejoin:round" />
    <path
       d="m 10.434781,12.175305 c 2.086957,-3.1302127 4.635391,-3.545545 6.260871,-2.08681 1.62548,1.458739 -2.086957,1.043405 -4.173914,3.130215 -2.086957,2.086806 0,6.260424 -2.086957,6.260424 -2.0869553,0 -2.0869553,-4.173618 0,-7.303829 z"
       id="path8"
       inkscape:connector-curvature="0"
       style="opacity:0.7;fill:#fcffff;fill-rule:evenodd" />
    <path
       d="M 2.0869561,28.86977 6.2608692,24.696152"
       style="overflow:visible;opacity:0.5;stroke:#fcffff;stroke-width:1.04344106;stroke-linecap:round;stroke-linejoin:round"
       id="path10"
       inkscape:connector-curvature="0" />
  </g>
</svg>
