<?xml version="1.0" encoding="utf-8"?>
<!-- Generator: Adobe Illustrator 25.0.0, SVG Export Plug-In . SVG Version: 6.00 Build 0)  -->
<svg version="1.1" id="Layer_1" xmlns="http://www.w3.org/2000/svg" xmlns:xlink="http://www.w3.org/1999/xlink" x="0px" y="0px"
	 viewBox="0 0 24 24" style="enable-background:new 0 0 24 24;" xml:space="preserve">
<style type="text/css">
	.st0{fill-rule:evenodd;clip-rule:evenodd;fill:#122F33;}
</style>
<g id="Shape">
	<path id="path-1_1_" class="st0" d="M20.1,16.3c0.1,0.1,0.2,0.3,0.2,0.5l-0.9,2.1l2,0c0.3,0,0.5,0.2,0.5,0.5c0,0.1,0,0.2-0.1,0.3
		l-1.9,3c-0.2,0.2-0.5,0.2-0.7,0.1C19,22.8,19,22.6,19,22.4l0.9-2.1l-2,0c-0.3,0-0.5-0.2-0.5-0.5c0-0.1,0-0.2,0.1-0.3l1.9-3
		C19.6,16.2,19.9,16.1,20.1,16.3z M17.6,1.3l4,4c0.4,0.4,0.4,1.2,0,1.6l-4,4l0.8,0.8c0.4,0.4,0.4,1.2,0,1.6l-4,4
		c-0.4,0.4-1.2,0.4-1.6,0L12,16.6l-4,4c-0.4,0.4-1.2,0.4-1.6,0l-4-4c-0.4-0.4-0.4-1.2,0-1.6l4-4l-0.8-0.8C5.1,9.7,5.1,9,5.6,8.6l4-4
		c0.4-0.4,1.2-0.4,1.6,0L12,5.3l4-4C16.5,0.9,17.2,0.9,17.6,1.3z M4.8,14.2l-1.6,1.6l4,4l1.6-1.6L4.8,14.2z M7.2,11.8l-1.6,1.6l4,4
		l1.6-1.6L7.2,11.8z M10.4,5.3l-4,4l7.2,7.2l4-4L10.4,5.3z M14.4,4.5l-1.6,1.6l4,4l1.6-1.6L14.4,4.5z M16.8,2.1l-1.6,1.6l4,4
		l1.6-1.6L16.8,2.1z"/>
</g>
</svg>
