<?xml version="1.0" encoding="UTF-8" standalone="no"?>
<svg
   xmlns:dc="http://purl.org/dc/elements/1.1/"
   xmlns:cc="http://creativecommons.org/ns#"
   xmlns:rdf="http://www.w3.org/1999/02/22-rdf-syntax-ns#"
   xmlns:svg="http://www.w3.org/2000/svg"
   xmlns="http://www.w3.org/2000/svg"
   xmlns:sodipodi="http://sodipodi.sourceforge.net/DTD/sodipodi-0.dtd"
   xmlns:inkscape="http://www.inkscape.org/namespaces/inkscape"
   viewBox="0 0 24 24"
   version="1.1"
   id="svg4"
   sodipodi:docname="zoom-target.svg"
   inkscape:version="0.92.2 5c3e80d, 2017-08-06">
  <metadata
     id="metadata10">
    <rdf:RDF>
      <cc:Work
         rdf:about="">
        <dc:format>image/svg+xml</dc:format>
        <dc:type
           rdf:resource="http://purl.org/dc/dcmitype/StillImage" />
      </cc:Work>
    </rdf:RDF>
  </metadata>
  <defs
     id="defs8" />
  <sodipodi:namedview
     pagecolor="#ffffff"
     bordercolor="#666666"
     borderopacity="1"
     objecttolerance="10"
     gridtolerance="10"
     guidetolerance="10"
     inkscape:pageopacity="0"
     inkscape:pageshadow="2"
     inkscape:window-width="1680"
     inkscape:window-height="1005"
     id="namedview6"
     showgrid="false"
     inkscape:zoom="33"
     inkscape:cx="12"
     inkscape:cy="12"
     inkscape:window-x="0"
     inkscape:window-y="1"
     inkscape:window-maximized="1"
     inkscape:current-layer="svg4" />
  <path
     d="m 12,8 c -2.21,0 -4,1.79 -4,4 0,2.21 1.79,4 4,4 2.21,0 4,-1.79 4,-4 0,-2.21 -1.79,-4 -4,-4 z m 8.94,3 A 8.994,8.994 0 0 0 13,3.06 V 1 H 11 V 3.06 A 8.994,8.994 0 0 0 3.06,11 H 1 v 2 H 3.06 A 8.994,8.994 0 0 0 11,20.94 V 23 h 2 V 20.94 A 8.994,8.994 0 0 0 20.94,13 H 23 V 11 Z M 12,19 C 8.13,19 5,15.87 5,12 5,8.13 8.13,5 12,5 c 3.87,0 7,3.13 7,7 0,3.87 -3.13,7 -7,7 z"
     id="path2"
     inkscape:connector-curvature="0"
     style="display:none" />
  <circle
     style="opacity:1;fill:#009da8;fill-opacity:1;stroke:#00edff;stroke-width:1.20117784;stroke-miterlimit:10;stroke-dasharray:0, 13.21295617;stroke-dashoffset:0;stroke-opacity:1"
     id="path817"
     cx="12"
     cy="12"
     r="3.8332624" />
  <path
     style="color:#000000;font-style:normal;font-variant:normal;font-weight:normal;font-stretch:normal;font-size:medium;line-height:normal;font-family:sans-serif;font-variant-ligatures:normal;font-variant-position:normal;font-variant-caps:normal;font-variant-numeric:normal;font-variant-alternates:normal;font-feature-settings:normal;text-indent:0;text-align:start;text-decoration:none;text-decoration-line:none;text-decoration-style:solid;text-decoration-color:#000000;letter-spacing:normal;word-spacing:normal;text-transform:none;writing-mode:lr-tb;direction:ltr;text-orientation:mixed;dominant-baseline:auto;baseline-shift:baseline;text-anchor:start;white-space:normal;shape-padding:0;clip-rule:nonzero;display:inline;overflow:visible;visibility:visible;opacity:1;isolation:auto;mix-blend-mode:normal;color-interpolation:sRGB;color-interpolation-filters:linearRGB;solid-color:#000000;solid-opacity:1;vector-effect:none;fill:#828282;fill-opacity:1;fill-rule:evenodd;stroke:none;stroke-width:1.89999998;stroke-linecap:butt;stroke-linejoin:miter;stroke-miterlimit:4;stroke-dasharray:none;stroke-dashoffset:0;stroke-opacity:1;color-rendering:auto;image-rendering:auto;shape-rendering:auto;text-rendering:auto;enable-background:accumulate"
     d="M 11.05,0.83007811 V 4.0010742 C 7.3673525,4.4374751 4.4374751,7.3673525 4.0010742,11.05 H 0.83007811 v 1.9 H 4.0010742 C 4.4374751,16.632647 7.3673525,19.562525 11.05,19.998926 v 3.170995 h 1.9 V 19.998926 C 16.632647,19.562525 19.562525,16.632647 19.998926,12.95 h 3.170995 v -1.9 H 19.998926 C 19.562525,7.3673525 16.632647,4.4374751 12.95,4.0010742 V 0.83007811 Z M 12,5.8379883 c 3.414157,0 6.162012,2.7478539 6.162012,6.1620117 0,3.414157 -2.747855,6.162012 -6.162012,6.162012 C 8.5858422,18.162012 5.8379883,15.414157 5.8379883,12 5.8379883,8.5858422 8.5858422,5.8379883 12,5.8379883 Z"
     id="path837"
     inkscape:connector-curvature="0" />
</svg>
