<?xml version="1.0" encoding="UTF-8" standalone="no"?>
<svg
   xmlns:dc="http://purl.org/dc/elements/1.1/"
   xmlns:cc="http://creativecommons.org/ns#"
   xmlns:rdf="http://www.w3.org/1999/02/22-rdf-syntax-ns#"
   xmlns:svg="http://www.w3.org/2000/svg"
   xmlns="http://www.w3.org/2000/svg"
   xmlns:sodipodi="http://sodipodi.sourceforge.net/DTD/sodipodi-0.dtd"
   xmlns:inkscape="http://www.inkscape.org/namespaces/inkscape"
   height="24"
   width="24"
   version="1.1"
   id="svg16"
   sodipodi:docname="zoom-to-aoi-solid.svg"
   inkscape:version="0.92.2 5c3e80d, 2017-08-06">
  <metadata
     id="metadata22">
    <rdf:RDF>
      <cc:Work
         rdf:about="">
        <dc:format>image/svg+xml</dc:format>
        <dc:type
           rdf:resource="http://purl.org/dc/dcmitype/StillImage" />
      </cc:Work>
    </rdf:RDF>
  </metadata>
  <defs
     id="defs20" />
  <sodipodi:namedview
     pagecolor="#ffffff"
     bordercolor="#666666"
     borderopacity="1"
     objecttolerance="10"
     gridtolerance="10"
     guidetolerance="10"
     inkscape:pageopacity="0"
     inkscape:pageshadow="2"
     inkscape:window-width="1680"
     inkscape:window-height="1005"
     id="namedview18"
     showgrid="false"
     inkscape:zoom="33"
     inkscape:cx="12"
     inkscape:cy="12"
     inkscape:window-x="0"
     inkscape:window-y="1"
     inkscape:window-maximized="1"
     inkscape:current-layer="g14" />
  <g
     transform="translate(0,-8)"
     id="g14">
    <path
       d="M 22.366667,9.499271 V 22.153663 H 2.5727264 V 9.6411549 Z"
       id="path2"
       inkscape:connector-curvature="0"
       style="opacity:1;fill:#eeeeec;stroke:#009da5;stroke-width:1.44858372;stroke-miterlimit:4;stroke-dasharray:2.89716747, 1.44858374;stroke-dashoffset:3.45000005;stroke-opacity:1"
       sodipodi:nodetypes="ccccc" />
    <path
       d="M 17.96122,7 A 5.9612203,6.0742435 0 0 1 12,13.074244 5.9612203,6.0742435 0 0 1 6.0387797,7 5.9612203,6.0742435 0 0 1 12,0.92575645 5.9612203,6.0742435 0 0 1 17.96122,7 Z"
       style="opacity:0.8;fill:#e6e6e6;stroke:#505050;stroke-width:0.75218332;stroke-linecap:round;stroke-linejoin:round;stroke-dashoffset:7"
       transform="matrix(1.4003553,0,0,1.3742014,-1.6738287,7.2495077)"
       id="path4"
       inkscape:connector-curvature="0" />
    <path
       d="m 7.8260866,22.087644 c 0,2.086807 2.0869568,2.086807 2.0869568,2.086807 0,0 -7.3043482,7.303828 -7.3043482,7.303828 L 0.52173861,29.39147 Z"
       id="path6"
       inkscape:connector-curvature="0"
       style="fill:#009da5;fill-opacity:1;fill-rule:evenodd;stroke:#505050;stroke-width:1.04344106;stroke-linejoin:round" />
    <path
       d="m 6.2608692,23.652749 2.0869565,-2.086807 2.0869553,2.086807 -2.0869553,2.086809 z"
       id="path8"
       inkscape:connector-curvature="0"
       style="fill-rule:evenodd;stroke:#505050;stroke-width:1.04344106;stroke-linejoin:round" />
    <path
       d="m 10.434781,12.175305 c 2.086957,-3.1302127 4.635391,-3.545545 6.260871,-2.08681 1.62548,1.458739 -2.086957,1.043405 -4.173914,3.130215 -2.086957,2.086806 0,6.260424 -2.086957,6.260424 -2.0869553,0 -2.0869553,-4.173618 0,-7.303829 z"
       id="path10"
       inkscape:connector-curvature="0"
       style="opacity:0.7;fill:#fcffff;fill-rule:evenodd" />
    <path
       d="M 2.0869561,28.86977 6.2608692,24.696152"
       style="overflow:visible;opacity:0.5;stroke:#fcffff;stroke-width:1.04344106;stroke-linecap:round;stroke-linejoin:round"
       id="path12"
       inkscape:connector-curvature="0" />
  </g>
</svg>
